<?xml version="1.0" standalone="no"?>
<!DOCTYPE svg PUBLIC "-//W3C//DTD SVG 20010904//EN"
 "http://www.w3.org/TR/2001/REC-SVG-20010904/DTD/svg10.dtd">
<svg version="1.0" xmlns="http://www.w3.org/2000/svg"
 width="200.000000pt" height="200.000000pt" viewBox="0 0 200.000000 200.000000"
 preserveAspectRatio="xMidYMid meet">
<metadata>
Created by potrace 1.15, written by Peter Selinger 2001-2017
</metadata>
<g transform="translate(0.000000,200.000000) scale(0.100000,-0.100000)"
fill="#000000" stroke="none">
<path d="M680 1710 c0 -5 -18 -10 -40 -10 l-41 0 15 -29 c9 -16 28 -33 44 -39
21 -7 31 -19 35 -41 4 -17 13 -31 20 -31 18 0 39 -72 31 -104 -4 -18 2 -39 24
-74 54 -88 82 -232 47 -246 -25 -9 -17 -26 14 -26 35 0 41 22 41 147 0 58 4
85 13 88 6 2 61 13 120 23 l108 19 19 -37 c11 -21 46 -60 79 -86 61 -51 81
-90 55 -110 -23 -18 -16 -34 16 -34 20 0 30 5 30 15 0 8 8 15 19 15 15 0 20
10 25 60 l7 61 -49 62 c-59 74 -79 109 -61 105 7 -2 14 4 16 12 2 9 -16 28
-44 46 -46 30 -54 32 -177 39 -152 7 -180 18 -206 78 -23 53 -57 85 -101 97
-43 13 -59 13 -59 0z"/>
<path d="M772 944 c-21 -14 -22 -22 -22 -132 0 -73 5 -126 13 -141 15 -30 58
-43 112 -35 65 9 80 26 79 89 0 70 -14 85 -76 85 -42 0 -49 -3 -46 -17 2 -13
14 -19 41 -21 38 -3 38 -3 35 -45 -2 -35 -7 -43 -29 -51 -14 -5 -38 -6 -52 -2
-23 5 -26 11 -32 78 -4 40 -5 93 -3 117 3 39 6 46 31 52 42 11 77 -5 77 -36 0
-18 5 -25 20 -25 16 0 20 7 20 33 0 20 -8 41 -18 50 -24 22 -119 23 -150 1z"/>
<path d="M1057 954 c-3 -5 -7 -76 -9 -159 l-3 -150 80 -3 c44 -1 86 2 94 7 19
12 30 81 31 188 0 86 -2 93 -22 104 -28 15 -163 25 -171 13z m138 -47 c16 -13
17 -22 9 -118 l-9 -104 -56 -3 -57 -3 5 108 c2 59 6 114 8 121 6 16 76 16 100
-1z"/>
<path d="M515 931 c-44 -11 -73 -29 -79 -48 -3 -10 3 -70 13 -133 23 -135 38
-156 107 -146 62 8 93 23 104 50 11 30 -23 244 -42 262 -18 17 -67 24 -103 15z
m62 -39 c11 -7 43 -162 43 -209 0 -15 -9 -24 -31 -32 -66 -23 -76 -13 -94 95
-21 128 -21 132 18 143 41 12 49 12 64 3z"/>
<path d="M1402 913 c-20 -15 -28 -41 -48 -148 -13 -72 -24 -134 -24 -138 0 -5
10 -7 22 -5 19 2 24 12 31 56 l9 54 51 -7 c29 -4 55 -9 58 -11 4 -2 3 -21 -2
-41 -14 -62 -11 -83 11 -83 11 0 20 1 20 3 0 1 11 60 24 131 32 171 24 190
-82 203 -37 4 -52 1 -70 -14z"/>
<path d="M1706 858 c-2 -7 -9 -49 -14 -93 -8 -62 -8 -86 2 -106 11 -21 10 -32
-6 -68 -10 -24 -15 -47 -12 -52 13 -21 36 -6 53 35 13 29 27 45 43 49 25 7
128 138 128 164 0 33 -39 8 -88 -57 -76 -101 -96 -83 -72 65 7 45 7 61 -3 67
-17 11 -27 10 -31 -4z"/>
<path d="M170 837 c-49 -17 -66 -28 -68 -44 -3 -19 82 -259 98 -276 7 -8 134
35 157 54 21 18 15 61 -22 161 -33 87 -62 128 -89 128 -6 0 -40 -11 -76 -23z
m125 -128 c20 -56 35 -102 33 -104 -12 -13 -94 -43 -99 -37 -9 10 -79 195 -79
207 0 13 80 44 96 38 6 -2 28 -49 49 -104z"/>
<path d="M1020 410 c0 -123 1 -130 20 -130 18 0 20 7 20 58 0 68 15 95 54 95
40 0 48 -13 53 -87 4 -46 10 -66 19 -66 20 0 19 128 -1 157 -19 26 -63 37 -98
24 -27 -10 -27 -10 -27 34 0 38 -3 45 -20 45 -19 0 -20 -7 -20 -130z"/>
<path d="M715 461 c-60 -25 -79 -110 -35 -156 32 -34 107 -35 137 -3 47 52 36
129 -23 154 -37 16 -50 16 -79 5z"/>
<path d="M1294 460 c-57 -23 -73 -112 -29 -155 18 -19 35 -25 68 -25 52 0 89
22 70 41 -10 10 -16 10 -25 1 -19 -19 -66 -14 -90 11 l-23 22 78 3 c74 3 77 4
77 27 0 53 -74 97 -126 75z"/>
<path d="M1472 458 c-30 -15 -40 -55 -18 -76 9 -10 36 -22 59 -27 51 -13 57
-39 10 -43 -18 -2 -41 2 -53 8 -16 9 -22 8 -27 -6 -9 -23 14 -34 73 -34 57 0
74 12 74 51 0 32 -10 40 -65 54 -43 12 -59 39 -27 49 11 4 32 2 47 -4 22 -8
30 -8 36 2 5 7 5 16 1 20 -13 13 -87 18 -110 6z"/>
</g>
</svg>
